<svg version="1.1" xmlns="http://www.w3.org/2000/svg" style="display: block;" viewBox="0 0 1200 1200" width="300" height="300" preserveAspectRatio="none">
<path transform="translate(0,0)" fill="rgb(153,135,246)" d="M 550.938 230.999 C 556.814 219.351 559.593 209.156 570.997 201.135 C 594.071 184.908 624.509 190.659 640.721 213.278 C 671.871 206.302 741.595 213.117 770.657 224.237 C 761.742 237.079 756.904 247.382 755.799 263.339 C 722.041 255.478 681.284 250.386 646.845 254.765 C 639.824 269.392 632.694 279.789 616.366 285.424 C 603.521 289.771 589.465 288.755 577.379 282.606 C 570.565 279.192 568.49 276.988 563.321 271.351 C 549.163 277.791 535.779 283.383 522.205 291.135 C 484.136 312.875 446.479 348.256 430.998 390.141 C 424.783 406.957 424.786 416.968 420.159 432.63 C 439.809 436.269 457.217 447.545 468.572 463.99 C 487.215 491.46 483.778 532.8 458.67 555.235 C 471.023 566.097 482.998 580.55 495.863 590.726 C 528.664 616.673 575.569 642.316 614.137 657.371 C 602.907 672.835 602.604 678.86 598.874 697.183 C 547.548 676.695 499.374 650.639 457.261 614.296 C 445.74 604.635 432.226 585.84 421.33 576.657 C 420.676 576.106 403.692 575.52 403.662 575.518 C 329.029 569.854 309.738 474.175 377.355 438.284 C 376.127 418.742 386.914 379.356 395.512 361.846 C 427.687 296.319 484.394 255.812 550.938 230.999 z"/>
<path transform="translate(0,0)" fill="rgb(153,135,246)" d="M 719.689 705.499 L 720.266 706.136 C 729.418 716.141 741.743 725.422 752.132 737.615 C 775.51 765.049 796.465 806.204 801.279 841.871 C 819.184 850.802 828.032 855.522 840.512 871.821 L 845.176 880.798 C 861.211 917.657 849.158 959.113 811.435 977.11 C 799.152 982.97 787.413 983.059 774.431 985.339 C 765.769 996.55 757.129 1008.2 747.231 1018.31 C 711.795 1054.17 665.425 1077.2 615.443 1083.77 C 557.006 1091.17 487.527 1069.75 434.795 1044.68 C 427.379 1041.15 423.708 1038.16 417.699 1034.9 C 429.934 1021.15 434.944 1020.68 441.829 1001.09 C 452.203 1005.04 463.216 1011.41 473.852 1015.59 C 581.559 1057.98 653.047 1055.87 733.658 968.597 C 698.974 935.027 697.693 882.335 738.919 852.521 C 745.442 847.805 751.43 845.413 758.764 842.328 C 754.84 832.953 752.379 822.857 748.253 813.066 C 736.212 784.492 719.178 764.91 698.448 742.65 C 716.024 723.616 711.278 726.542 719.426 706.139 L 719.689 705.499 z"/>
<path transform="translate(0,0)" fill="rgb(182,163,248)" d="M 335.156 948.696 C 358.54 920.919 395.906 914.259 424.271 938.881 C 436.041 949.298 443.184 963.969 444.122 979.659 C 444.681 988.056 444.061 993.066 441.829 1001.09 C 434.944 1020.68 429.934 1021.15 417.699 1034.9 C 416.039 1035.69 414.369 1036.46 412.691 1037.2 C 395.768 1044.73 378.401 1046.25 360.963 1039.36 C 346.452 1033.58 334.821 1022.28 328.615 1007.95 C 322.619 993.871 322.546 974.858 328.212 960.596 C 330.645 955.605 332.025 953.289 335.156 948.696 z"/>
<path transform="translate(0,0)" fill="rgb(153,135,246)" d="M 335.156 948.696 C 338.332 952.084 380.451 974.642 387.552 978.636 C 385.511 982.067 383.229 986.14 381.09 989.434 C 371.156 983.104 338.129 962.944 328.212 960.596 C 330.645 955.605 332.025 953.289 335.156 948.696 z"/>
<path transform="translate(0,0)" fill="rgb(182,163,248)" d="M 770.657 224.237 C 775.305 219.77 779.202 215.988 784.737 212.555 C 808.064 198.083 840.814 202.484 859.8 222.304 C 871.118 234.056 877.101 249.948 876.342 266.246 C 875.981 275.857 872.959 287.401 867.371 295.338 L 866.6 297.745 L 865.675 299.196 L 858.959 306.468 C 819.315 343.651 758.716 319.402 755.799 263.339 C 756.904 247.382 761.742 237.079 770.657 224.237 z"/>
<path transform="translate(0,0)" fill="rgb(153,135,246)" d="M 820.154 259.024 C 825.711 265.472 858.953 292.111 867.371 295.338 L 866.6 297.745 L 865.675 299.196 L 858.959 306.468 C 853.298 300.268 819.35 273.854 811.645 268.366 L 820.154 259.024 z"/>
<path transform="translate(0,0)" fill="rgb(182,163,248)" d="M 614.137 657.371 C 624.356 646.148 631.304 641.465 646.439 637.506 C 686.026 627.148 728.477 664.319 719.689 705.499 L 719.426 706.139 C 711.278 726.542 716.024 723.616 698.448 742.65 C 691.092 748.466 682.52 752.549 673.368 754.595 C 644.689 760.981 615.508 746.144 604.633 718.796 C 601.655 711.307 600.477 705.059 598.874 697.183 C 602.604 678.86 602.907 672.835 614.137 657.371 z"/>
<path transform="translate(0,0)" fill="rgb(120,99,210)" fill-opacity="0.831373" d="M 866.415 852.846 C 859.59 835.177 867.586 815.237 884.728 807.179 C 901.87 799.121 922.326 805.686 931.577 822.215 C 940.828 838.744 935.728 859.612 919.895 870.01 C 904.062 880.408 882.884 876.797 871.392 861.74 C 869.321 859.026 867.645 856.031 866.415 852.846 z"/>
<path transform="translate(0,0)" fill="rgb(120,99,210)" fill-opacity="0.835294" d="M 292.732 442.825 C 282.885 450.867 274.745 456.31 261.027 455.615 C 251.595 455.112 242.76 450.845 236.503 443.771 C 224.634 430.535 225.129 405.409 239.187 393.306 C 247.012 386.672 257.173 383.456 267.391 384.379 C 290.739 386.407 302.157 404.711 299.428 426.989 L 298.263 430.933 C 296.626 435.221 295.392 439.053 292.732 442.825 z"/>
<path transform="translate(0,0)" fill="rgb(120,99,210)" fill-opacity="0.835294" d="M 268.73 922.822 C 259.613 930.416 253.085 934.826 240.415 935.838 C 232.588 936.623 219.101 931.419 213.946 925.247 C 182.983 888.17 229.383 843.109 265.86 874.431 C 274.332 881.706 276.012 894.11 275.925 904.89 L 274.253 910.968 C 272.584 915.339 271.43 919.002 268.73 922.822 z"/>
<path transform="translate(0,0)" fill="rgb(120,99,210)" fill-opacity="0.831373" d="M 911.15 333.585 C 918.001 328.798 920.356 326.978 928.722 325.102 C 954.787 319.256 977.796 342.348 971.142 368.251 C 958.475 417.568 882.939 394.566 902.963 344.532 L 903.629 344.967 C 903.851 346.591 904.181 347.427 904.653 348.977 C 906.788 342.579 915.774 343.962 911.145 334.397 L 911.15 333.585 z"/>
<path transform="translate(0,0)" fill="rgb(120,99,210)" fill-opacity="0.239216" d="M 866.6 297.745 C 879.464 306.279 897.735 321.407 908.871 332.226 C 910.04 333.361 909.431 333.127 911.15 333.585 L 911.145 334.397 C 907.146 337.672 905.336 339.851 903.629 344.967 L 902.963 344.532 C 903.832 335.199 866.315 317.848 863.502 307.363 C 864.809 304.54 866.141 302.421 865.675 299.196 L 866.6 297.745 z"/>
<path transform="translate(0,0)" fill="rgb(120,99,210)" fill-opacity="0.184314" d="M 298.263 430.933 L 299.428 426.989 C 302.311 442.234 334.129 448.884 344.055 461.79 C 343.545 464.424 343.379 464.735 341.905 466.982 L 341.68 465.25 C 339.802 463.292 332.051 459.763 329.174 459.634 L 327.937 460.932 L 328.32 464.194 C 317.387 457.931 302.842 451.731 294.567 442.507 C 298.479 442.856 302.525 446.154 306.367 443.547 C 306.612 438.351 299.722 435.941 298.263 430.933 z"/>
<path transform="translate(0,0)" fill="rgb(120,99,210)" fill-opacity="0.184314" d="M 275.925 904.89 C 276.125 911.765 275.809 910.55 280.647 915.908 C 286.965 922.905 307.11 928.807 311.774 935.671 L 313.066 941.036 C 310.414 944.076 309.244 944.575 304.955 944.681 C 295.267 939.954 277.49 930.147 270.505 922.492 C 275.497 922.972 276.972 925.708 282.21 923.63 C 282.84 918.787 276.18 916.105 274.253 910.968 L 275.925 904.89 z"/>
<path transform="translate(0,0)" fill="rgb(120,99,210)" fill-opacity="0.137255" d="M 866.415 852.846 C 867.645 856.031 869.321 859.026 871.392 861.74 C 865.461 866.858 852.073 878.201 845.176 880.798 L 840.512 871.821 C 844.594 863.848 858.074 855.064 866.415 852.846 z M 848.571 877.894 C 853.629 873.762 861.025 867.385 864.881 862.202 C 864.649 859.054 864.967 860.203 862.005 857.44 L 861.258 858.064 C 855.025 863.206 846.021 866.116 844.856 872.387 C 846.001 875.378 846.138 875.851 848.571 877.894 z"/>
<path transform="translate(0,0)" fill="rgb(120,99,210)" fill-opacity="0.321569" d="M 862.005 857.44 C 864.967 860.203 864.649 859.054 864.881 862.202 C 861.025 867.385 853.629 873.762 848.571 877.894 C 846.138 875.851 846.001 875.378 844.856 872.387 C 846.021 866.116 855.025 863.206 861.258 858.064 L 862.005 857.44 z"/>
<path transform="translate(0,0)" fill="rgb(120,99,210)" fill-opacity="0.172549" d="M 311.774 935.671 C 321.089 940.421 334.233 942.58 329.118 954.632 L 328.357 951.117 C 325.631 950.586 322.25 950.663 319.421 950.608 L 318.087 952.602 C 314.108 949.949 308.339 947.138 304.955 944.681 C 309.244 944.575 310.414 944.076 313.066 941.036 L 311.774 935.671 z"/>
<path transform="translate(0,0)" fill="rgb(120,99,210)" fill-opacity="0.258824" d="M 292.732 442.825 C 295.392 439.053 296.626 435.221 298.263 430.933 C 299.722 435.941 306.612 438.351 306.367 443.547 C 302.525 446.154 298.479 442.856 294.567 442.507 L 292.732 442.825 z"/>
<path transform="translate(0,0)" fill="rgb(120,99,210)" fill-opacity="0.258824" d="M 268.73 922.822 C 271.43 919.002 272.584 915.339 274.253 910.968 C 276.18 916.105 282.84 918.787 282.21 923.63 C 276.972 925.708 275.497 922.972 270.505 922.492 L 268.73 922.822 z"/>
<path transform="translate(0,0)" fill="rgb(120,99,210)" fill-opacity="0.215686" d="M 328.32 464.194 L 327.937 460.932 L 329.174 459.634 C 332.051 459.763 339.802 463.292 341.68 465.25 L 341.905 466.982 C 337.171 468.392 332.4 466.434 328.32 464.194 z"/>
<path transform="translate(0,0)" fill="rgb(120,99,210)" fill-opacity="0.921569" d="M 903.629 344.967 C 905.336 339.851 907.146 337.672 911.145 334.397 C 915.774 343.962 906.788 342.579 904.653 348.977 C 904.181 347.427 903.851 346.591 903.629 344.967 z"/>
<path transform="translate(0,0)" fill="rgb(120,99,210)" fill-opacity="0.278431" d="M 318.087 952.602 L 319.421 950.608 C 322.25 950.663 325.631 950.586 328.357 951.117 L 329.118 954.632 L 326.665 956.488 C 323.224 956.887 320.915 954.653 318.087 952.602 z"/>
</svg>